<svg xmlns="http://www.w3.org/2000/svg" xmlns:xlink="http://www.w3.org/1999/xlink" width="1400" height="716.43"><rect width="1400" height="716.43" rx="0" ry="0" class="a"/><svg height="716.43" viewBox="0 0 140 71.643" width="1400" xmlns="http://www.w3.org/2000/svg" xmlns:xlink="http://www.w3.org/1999/xlink"><style>@keyframes l{0%{transform:translateX(0)}6.9%{transform:translateX(-280px)}7.9%{transform:translateX(-700px)}14.5%{transform:translateX(-840px)}16.4%{transform:translateX(-980px)}17.7%{transform:translateX(-1120px)}19.6%{transform:translateX(-1260px)}20.8%{transform:translateX(-1400px)}21.9%{transform:translateX(-1540px)}22.6%{transform:translateX(-1680px)}23.7%{transform:translateX(-1820px)}24.7%{transform:translateX(-1960px)}26%{transform:translateX(-2100px)}27.6%{transform:translateX(-2240px)}29.2%{transform:translateX(-2380px)}31.1%{transform:translateX(-2520px)}37.1%{transform:translateX(-2800px)}40.4%{transform:translateX(-2940px)}42.7%{transform:translateX(-3080px)}46.8%{transform:translateX(-3220px)}67.1%{transform:translateX(-3500px)}78.8%{transform:translateX(-3640px)}79.4%{transform:translateX(-3780px)}79.7%{transform:translateX(-3920px)}79.8%{transform:translateX(-4340px)}79.9%{transform:translateX(-4480px)}80%{transform:translateX(-4760px)}81%{transform:translateX(-5180px)}to{transform:translateX(-5320px)}}.a{fill:#282d35}.c,.d,.e{white-space:pre}.c{fill:#5faf5f;font-weight:700}.d,.e{fill:#6c6c6c}.e{fill:#b9c0cb}.f{font-weight:700}.f,.g,.h,.i{fill:#66c2cd;white-space:pre}.h,.i{fill:#a8cc8c}.i{font-weight:700}</style><g font-family="Monaco,Consolas,Menlo,'Bitstream Vera Sans Mono','Powerline Symbols',monospace" font-size="1.67"><defs><symbol id="1"><text y="1.67" class="c">❯</text><text x="61.122" y="1.67" class="d">template-node-cli/git/master</text><text x="90.18" y="1.67" class="d">!</text></symbol><symbol id="2"><text y="1.67" class="c">❯</text><text x="2.004" y="1.67" class="e">npm</text><text x="61.122" y="1.67" class="d">template-node-cli/git/master</text><text x="90.18" y="1.67" class="d">!</text></symbol><symbol id="3"><text y="1.67" class="c">❯</text><text x="2.004" y="1.67" class="e">npm</text><text x="6.012" y="1.67" class="e">run</text><text x="61.122" y="1.67" class="d">template-node-cli/git/master</text><text x="90.18" y="1.67" class="d">!</text></symbol><symbol id="4"><text y="1.67" class="c">❯</text><text x="2.004" y="1.67" class="e">npm</text><text x="6.012" y="1.67" class="e">run</text><text x="10.02" y="1.67" class="e">build</text><text x="61.122" y="1.67" class="d">template-node-cli/git/master</text><text x="90.18" y="1.67" class="d">!</text></symbol><symbol id="5"><text y="1.67" class="e">&gt;</text><text x="2.004" y="1.67" class="e">my-cli@0.0.1</text><text x="15.03" y="1.67" class="e">build</text><text x="21.042" y="1.67" class="e">/Users/cbutler/Workspace/OSS/node/coreybutler/template-node-cli</text></symbol><symbol id="6"><text y="1.67" class="e">&gt;</text><text x="2.004" y="1.67" class="e">cd</text><text x="5.01" y="1.67" class="e">./build</text><text x="13.026" y="1.67" class="e">&amp;&amp;</text><text x="16.032" y="1.67" class="e">npm</text><text x="20.04" y="1.67" class="e">start</text><text x="26.052" y="1.67" class="e">&amp;&amp;</text><text x="29.058" y="1.67" class="e">echo</text><text x="34.068" y="1.67" class="e">&quot;&quot;</text><text x="37.074" y="1.67" class="e">&amp;&amp;</text><text x="40.08" y="1.67" class="e">echo</text><text x="45.09" y="1.67" class="e">Node</text><text x="50.1" y="1.67" class="e">modules</text><text x="58.116" y="1.67" class="e">created.</text><text x="67.134" y="1.67" class="e">&amp;&amp;</text><text x="70.14" y="1.67" class="e">echo</text><text x="75.15" y="1.67" class="e">&apos;Run</text><text x="80.16" y="1.67" class="e">\x22npm</text><text x="88.176" y="1.67" class="e">run</text><text x="92.184" y="1.67" class="e">binary\x22</text><text x="103.206" y="1.67" class="e">to</text><text x="106.212" y="1.67" class="e">generate</text><text x="115.23" y="1.67" class="e">standalone</text><text x="126.252" y="1.67" class="e">executables</text><text x="138.276" y="1.67" class="e">fo</text></symbol><symbol id="7"><text y="1.67" class="e">r</text><text x="2.004" y="1.67" class="e">Windows,</text><text x="11.022" y="1.67" class="e">macOS,</text><text x="18.036" y="1.67" class="e">and</text><text x="22.044" y="1.67" class="e">Linux.&apos;</text></symbol><symbol id="8"><text y="1.67" class="e">&gt;</text><text x="2.004" y="1.67" class="e">build@1.0.0</text><text x="14.028" y="1.67" class="e">start</text><text x="20.04" y="1.67" class="e">/Users/cbutler/Workspace/OSS/node/coreybutler/template-node-cli/build</text></symbol><symbol id="9"><text y="1.67" class="e">&gt;</text><text x="2.004" y="1.67" class="e">rollup</text><text x="9.018" y="1.67" class="e">-c</text><text x="12.024" y="1.67" class="e">rollup.node.config.js</text><text x="34.068" y="1.67" class="e">&amp;&amp;</text><text x="37.074" y="1.67" class="e">node</text><text x="42.084" y="1.67" class="e">./lib/node-package.js</text></symbol><symbol id="10"><text y="1.67" class="f">/var/folders/2r/86k10__n6tv_4wgzy2mb28y00000gn/T/cli-build-1582668771098/shell.js</text><text x="82.164" y="1.67" class="g">→</text><text x="84.168" y="1.67" class="f">../.dist/my-cli/my-cli-0.0.1.min.js</text><text x="119.238" y="1.67" class="g">...</text></symbol><symbol id="11"><text y="1.67" class="h">created</text><text x="8.016" y="1.67" class="i">../.dist/my-cli/my-cli-0.0.1.min.js</text><text x="44.088" y="1.67" class="h">in</text><text x="47.094" y="1.67" class="i">2.6s</text></symbol><symbol id="12"><text y="1.67" class="f">/var/folders/2r/86k10__n6tv_4wgzy2mb28y00000gn/T/cli-build-1582668771098/shell.js</text><text x="82.164" y="1.67" class="g">→</text><text x="84.168" y="1.67" class="f">../.dist/my-cli-legacy/my-cli-0.0.1.min.js</text><text x="126.252" y="1.67" class="g">...</text></symbol><symbol id="13"><text y="1.67" class="h">created</text><text x="8.016" y="1.67" class="i">../.dist/my-cli-legacy/my-cli-0.0.1.min.js</text><text x="51.102" y="1.67" class="h">in</text><text x="54.108" y="1.67" class="i">1.5s</text></symbol><symbol id="14"><text y="1.67" class="e">(node:17765)</text><text x="13.026" y="1.67" class="e">ExperimentalWarning:</text><text x="34.068" y="1.67" class="e">The</text><text x="38.076" y="1.67" class="e">ESM</text><text x="42.084" y="1.67" class="e">module</text><text x="49.098" y="1.67" class="e">loader</text><text x="56.112" y="1.67" class="e">is</text><text x="59.118" y="1.67" class="e">experimental.</text></symbol><symbol id="15"><text y="1.67" class="e">Creating</text><text x="9.018" y="1.67" class="e">debug</text><text x="15.03" y="1.67" class="e">package</text><text x="23.046" y="1.67" class="e">for</text><text x="27.054" y="1.67" class="e">modern</text><text x="34.068" y="1.67" class="e">Node.js</text></symbol><symbol id="16"><text y="1.67" class="e">Creating</text><text x="9.018" y="1.67" class="e">debug</text><text x="15.03" y="1.67" class="e">package</text><text x="23.046" y="1.67" class="e">for</text><text x="27.054" y="1.67" class="e">legacy</text><text x="34.068" y="1.67" class="e">Node.js</text></symbol><symbol id="17"><text y="1.67" class="e">Creating</text><text x="9.018" y="1.67" class="e">production</text><text x="20.04" y="1.67" class="e">package</text><text x="28.056" y="1.67" class="e">for</text><text x="32.064" y="1.67" class="e">modern</text><text x="39.078" y="1.67" class="e">Node.js</text></symbol><symbol id="18"><text y="1.67" class="e">Creating</text><text x="9.018" y="1.67" class="e">production</text><text x="20.04" y="1.67" class="e">package</text><text x="28.056" y="1.67" class="e">for</text><text x="32.064" y="1.67" class="e">legacy</text><text x="39.078" y="1.67" class="e">Node.js</text></symbol><symbol id="19"><text y="1.67" class="e">Node</text><text x="5.01" y="1.67" class="e">modules</text><text x="13.026" y="1.67" class="e">created.</text></symbol><symbol id="20"><text y="1.67" class="e">Run</text><text x="4.008" y="1.67" class="e">&quot;npm</text><text x="9.018" y="1.67" class="e">run</text><text x="13.026" y="1.67" class="e">binary&quot;</text><text x="21.042" y="1.67" class="e">to</text><text x="24.048" y="1.67" class="e">generate</text><text x="33.066" y="1.67" class="e">standalone</text><text x="44.088" y="1.67" class="e">executables</text><text x="56.112" y="1.67" class="e">for</text><text x="60.12" y="1.67" class="e">Windows,</text><text x="69.138" y="1.67" class="e">macOS,</text><text x="76.152" y="1.67" class="e">and</text><text x="80.16" y="1.67" class="e">Linux.</text></symbol><symbol id="a"><path fill="transparent" d="M0 0h140v33H0z"/></symbol><symbol id="b"><path fill="#6f7683" d="M0 0h1.102v2.171H0z"/></symbol></defs><path class="a" d="M0 0h140v71.643H0z"/><g style="animation-duration:12.935852s;animation-iteration-count:infinite;animation-name:l;animation-timing-function:steps(1,end)"><svg width="5460"><svg><use xlink:href="#a"/><use xlink:href="#b" x="-.004"/></svg><svg x="140"><use xlink:href="#a"/><use xlink:href="#b" x="-.004"/></svg><svg x="280"><use xlink:href="#a"/><use xlink:href="#b" x="-.004"/></svg><svg x="420"><use xlink:href="#a"/><use xlink:href="#b" x="1.996"/><use xlink:href="#1"/></svg><svg x="560"><use xlink:href="#a"/><use xlink:href="#b" x="1.996"/><use xlink:href="#1"/></svg><svg x="700"><use xlink:href="#a"/><use xlink:href="#b" x="1.996"/><use xlink:href="#1"/></svg><svg x="840"><use xlink:href="#a"/><use xlink:href="#b" x="2.996"/><text y="1.67" class="c">❯</text><text x="2.004" y="1.67" class="e">n</text><text x="61.122" y="1.67" class="d">template-node-cli/git/master</text><text x="90.18" y="1.67" class="d">!</text></svg><svg x="980"><use xlink:href="#a"/><use xlink:href="#b" x="3.996"/><text y="1.67" class="c">❯</text><text x="2.004" y="1.67" class="e">np</text><text x="61.122" y="1.67" class="d">template-node-cli/git/master</text><text x="90.18" y="1.67" class="d">!</text></svg><svg x="1120"><use xlink:href="#a"/><use xlink:href="#b" x="4.996"/><use xlink:href="#2"/></svg><svg x="1260"><use xlink:href="#a"/><use xlink:href="#b" x="5.996"/><use xlink:href="#2"/></svg><svg x="1400"><use xlink:href="#a"/><use xlink:href="#b" x="6.996"/><text y="1.67" class="c">❯</text><text x="2.004" y="1.67" class="e">npm</text><text x="6.012" y="1.67" class="e">r</text><text x="61.122" y="1.67" class="d">template-node-cli/git/master</text><text x="90.18" y="1.67" class="d">!</text></svg><svg x="1540"><use xlink:href="#a"/><use xlink:href="#b" x="7.996"/><text y="1.67" class="c">❯</text><text x="2.004" y="1.67" class="e">npm</text><text x="6.012" y="1.67" class="e">ru</text><text x="61.122" y="1.67" class="d">template-node-cli/git/master</text><text x="90.18" y="1.67" class="d">!</text></svg><svg x="1680"><use xlink:href="#a"/><use xlink:href="#b" x="8.996"/><use xlink:href="#3"/></svg><svg x="1820"><use xlink:href="#a"/><use xlink:href="#b" x="9.996"/><use xlink:href="#3"/></svg><svg x="1960"><use xlink:href="#a"/><use xlink:href="#b" x="10.996"/><text y="1.67" class="c">❯</text><text x="2.004" y="1.67" class="e">npm</text><text x="6.012" y="1.67" class="e">run</text><text x="10.02" y="1.67" class="e">b</text><text x="61.122" y="1.67" class="d">template-node-cli/git/master</text><text x="90.18" y="1.67" class="d">!</text></svg><svg x="2100"><use xlink:href="#a"/><use xlink:href="#b" x="11.996"/><text y="1.67" class="c">❯</text><text x="2.004" y="1.67" class="e">npm</text><text x="6.012" y="1.67" class="e">run</text><text x="10.02" y="1.67" class="e">bu</text><text x="61.122" y="1.67" class="d">template-node-cli/git/master</text><text x="90.18" y="1.67" class="d">!</text></svg><svg x="2240"><use xlink:href="#a"/><use xlink:href="#b" x="12.996"/><text y="1.67" class="c">❯</text><text x="2.004" y="1.67" class="e">npm</text><text x="6.012" y="1.67" class="e">run</text><text x="10.02" y="1.67" class="e">bui</text><text x="61.122" y="1.67" class="d">template-node-cli/git/master</text><text x="90.18" y="1.67" class="d">!</text></svg><svg x="2380"><use xlink:href="#a"/><use xlink:href="#b" x="13.996"/><text y="1.67" class="c">❯</text><text x="2.004" y="1.67" class="e">npm</text><text x="6.012" y="1.67" class="e">run</text><text x="10.02" y="1.67" class="e">buil</text><text x="61.122" y="1.67" class="d">template-node-cli/git/master</text><text x="90.18" y="1.67" class="d">!</text></svg><svg x="2520"><use xlink:href="#a"/><use xlink:href="#b" x="14.996"/><use xlink:href="#4"/></svg><svg x="2660"><use xlink:href="#a"/><use xlink:href="#b" x="-.004" y="2.146"/><use xlink:href="#4"/></svg><svg x="2800"><use xlink:href="#a"/><use xlink:href="#b" x="-.004" y="2.146"/><use xlink:href="#4"/></svg><svg x="2940"><use xlink:href="#a"/><use xlink:href="#b" x="-.004" y="13.001"/><use xlink:href="#4"/><use xlink:href="#5" y="4.342"/><use xlink:href="#6" y="6.513"/><use xlink:href="#7" y="8.684"/></svg><svg x="3080"><use xlink:href="#a"/><use xlink:href="#b" x="-.004" y="21.685"/><use xlink:href="#4"/><use xlink:href="#5" y="4.342"/><use xlink:href="#6" y="6.513"/><use xlink:href="#7" y="8.684"/><use xlink:href="#8" y="15.197"/><use xlink:href="#9" y="17.368"/></svg><svg x="3220"><use xlink:href="#a"/><use xlink:href="#b" x="-.004" y="26.027"/><use xlink:href="#4"/><use xlink:href="#5" y="4.342"/><use xlink:href="#6" y="6.513"/><use xlink:href="#7" y="8.684"/><use xlink:href="#8" y="15.197"/><use xlink:href="#9" y="17.368"/><use xlink:href="#10" y="23.881"/></svg><svg x="3360"><use xlink:href="#a"/><use xlink:href="#b" x="-.004" y="28.198"/><use xlink:href="#4"/><use xlink:href="#5" y="4.342"/><use xlink:href="#6" y="6.513"/><use xlink:href="#7" y="8.684"/><use xlink:href="#8" y="15.197"/><use xlink:href="#9" y="17.368"/><use xlink:href="#10" y="23.881"/><use xlink:href="#11" y="26.052"/></svg><svg x="3500"><use xlink:href="#a"/><use xlink:href="#b" x="-.004" y="32.54"/><use xlink:href="#4"/><use xlink:href="#5" y="4.342"/><use xlink:href="#6" y="6.513"/><use xlink:href="#7" y="8.684"/><use xlink:href="#8" y="15.197"/><use xlink:href="#9" y="17.368"/><use xlink:href="#10" y="23.881"/><use xlink:href="#11" y="26.052"/><use xlink:href="#12" y="30.394"/></svg><svg x="3640"><use xlink:href="#a"/><use xlink:href="#b" x="-.004" y="34.711"/><use xlink:href="#4"/><use xlink:href="#5" y="4.342"/><use xlink:href="#6" y="6.513"/><use xlink:href="#7" y="8.684"/><use xlink:href="#8" y="15.197"/><use xlink:href="#9" y="17.368"/><use xlink:href="#10" y="23.881"/><use xlink:href="#11" y="26.052"/><use xlink:href="#12" y="30.394"/><use xlink:href="#13" y="32.565"/></svg><svg x="3780"><use xlink:href="#a"/><use xlink:href="#b" x="-.004" y="36.882"/><use xlink:href="#4"/><use xlink:href="#5" y="4.342"/><use xlink:href="#6" y="6.513"/><use xlink:href="#7" y="8.684"/><use xlink:href="#8" y="15.197"/><use xlink:href="#9" y="17.368"/><use xlink:href="#10" y="23.881"/><use xlink:href="#11" y="26.052"/><use xlink:href="#12" y="30.394"/><use xlink:href="#13" y="32.565"/><use xlink:href="#14" y="34.736"/></svg><svg x="3920"><use xlink:href="#a"/><use xlink:href="#b" x="-.004" y="39.053"/><use xlink:href="#4"/><use xlink:href="#5" y="4.342"/><use xlink:href="#6" y="6.513"/><use xlink:href="#7" y="8.684"/><use xlink:href="#8" y="15.197"/><use xlink:href="#9" y="17.368"/><use xlink:href="#10" y="23.881"/><use xlink:href="#11" y="26.052"/><use xlink:href="#12" y="30.394"/><use xlink:href="#13" y="32.565"/><use xlink:href="#14" y="34.736"/><use xlink:href="#15" y="36.907"/></svg><svg x="4060"><use xlink:href="#a"/><use xlink:href="#b" x="-.004" y="41.224"/><use xlink:href="#4"/><use xlink:href="#5" y="4.342"/><use xlink:href="#6" y="6.513"/><use xlink:href="#7" y="8.684"/><use xlink:href="#8" y="15.197"/><use xlink:href="#9" y="17.368"/><use xlink:href="#10" y="23.881"/><use xlink:href="#11" y="26.052"/><use xlink:href="#12" y="30.394"/><use xlink:href="#13" y="32.565"/><use xlink:href="#14" y="34.736"/><use xlink:href="#15" y="36.907"/><use xlink:href="#16" y="39.078"/></svg><svg x="4200"><use xlink:href="#a"/><use xlink:href="#b" x="-.004" y="43.395"/><use xlink:href="#4"/><use xlink:href="#5" y="4.342"/><use xlink:href="#6" y="6.513"/><use xlink:href="#7" y="8.684"/><use xlink:href="#8" y="15.197"/><use xlink:href="#9" y="17.368"/><use xlink:href="#10" y="23.881"/><use xlink:href="#11" y="26.052"/><use xlink:href="#12" y="30.394"/><use xlink:href="#13" y="32.565"/><use xlink:href="#14" y="34.736"/><use xlink:href="#15" y="36.907"/><use xlink:href="#16" y="39.078"/><use xlink:href="#17" y="41.249"/></svg><svg x="4340"><use xlink:href="#a"/><use xlink:href="#b" x="-.004" y="45.566"/><use xlink:href="#4"/><use xlink:href="#5" y="4.342"/><use xlink:href="#6" y="6.513"/><use xlink:href="#7" y="8.684"/><use xlink:href="#8" y="15.197"/><use xlink:href="#9" y="17.368"/><use xlink:href="#10" y="23.881"/><use xlink:href="#11" y="26.052"/><use xlink:href="#12" y="30.394"/><use xlink:href="#13" y="32.565"/><use xlink:href="#14" y="34.736"/><use xlink:href="#15" y="36.907"/><use xlink:href="#16" y="39.078"/><use xlink:href="#17" y="41.249"/><use xlink:href="#18" y="43.42"/></svg><svg x="4480"><use xlink:href="#a"/><use xlink:href="#b" x="-.004" y="52.079"/><use xlink:href="#4"/><use xlink:href="#5" y="4.342"/><use xlink:href="#6" y="6.513"/><use xlink:href="#7" y="8.684"/><use xlink:href="#8" y="15.197"/><use xlink:href="#9" y="17.368"/><use xlink:href="#10" y="23.881"/><use xlink:href="#11" y="26.052"/><use xlink:href="#12" y="30.394"/><use xlink:href="#13" y="32.565"/><use xlink:href="#14" y="34.736"/><use xlink:href="#15" y="36.907"/><use xlink:href="#16" y="39.078"/><use xlink:href="#17" y="41.249"/><use xlink:href="#18" y="43.42"/><use xlink:href="#19" y="47.762"/><use xlink:href="#20" y="49.933"/></svg><svg x="4620"><use xlink:href="#a"/><use xlink:href="#b" x="-.004" y="52.079"/><use xlink:href="#4"/><use xlink:href="#5" y="4.342"/><use xlink:href="#6" y="6.513"/><use xlink:href="#7" y="8.684"/><use xlink:href="#8" y="15.197"/><use xlink:href="#9" y="17.368"/><use xlink:href="#10" y="23.881"/><use xlink:href="#11" y="26.052"/><use xlink:href="#12" y="30.394"/><use xlink:href="#13" y="32.565"/><use xlink:href="#14" y="34.736"/><use xlink:href="#15" y="36.907"/><use xlink:href="#16" y="39.078"/><use xlink:href="#17" y="41.249"/><use xlink:href="#18" y="43.42"/><use xlink:href="#19" y="47.762"/><use xlink:href="#20" y="49.933"/></svg><svg x="4760"><use xlink:href="#a"/><use xlink:href="#b" x="-.004" y="52.079"/><use xlink:href="#4"/><use xlink:href="#5" y="4.342"/><use xlink:href="#6" y="6.513"/><use xlink:href="#7" y="8.684"/><use xlink:href="#8" y="15.197"/><use xlink:href="#9" y="17.368"/><use xlink:href="#10" y="23.881"/><use xlink:href="#11" y="26.052"/><use xlink:href="#12" y="30.394"/><use xlink:href="#13" y="32.565"/><use xlink:href="#14" y="34.736"/><use xlink:href="#15" y="36.907"/><use xlink:href="#16" y="39.078"/><use xlink:href="#17" y="41.249"/><use xlink:href="#18" y="43.42"/><use xlink:href="#19" y="47.762"/><use xlink:href="#20" y="49.933"/></svg><svg x="4900"><use xlink:href="#a"/><use xlink:href="#b" x="1.996" y="52.079"/><use xlink:href="#4"/><use xlink:href="#5" y="4.342"/><use xlink:href="#6" y="6.513"/><use xlink:href="#7" y="8.684"/><use xlink:href="#8" y="15.197"/><use xlink:href="#9" y="17.368"/><use xlink:href="#10" y="23.881"/><use xlink:href="#11" y="26.052"/><use xlink:href="#12" y="30.394"/><use xlink:href="#13" y="32.565"/><use xlink:href="#14" y="34.736"/><use xlink:href="#15" y="36.907"/><use xlink:href="#16" y="39.078"/><use xlink:href="#17" y="41.249"/><use xlink:href="#18" y="43.42"/><use xlink:href="#19" y="47.762"/><use xlink:href="#20" y="49.933"/><use xlink:href="#1" y="52.104"/></svg><svg x="5040"><use xlink:href="#a"/><use xlink:href="#b" x="1.996" y="52.079"/><use xlink:href="#4"/><use xlink:href="#5" y="4.342"/><use xlink:href="#6" y="6.513"/><use xlink:href="#7" y="8.684"/><use xlink:href="#8" y="15.197"/><use xlink:href="#9" y="17.368"/><use xlink:href="#10" y="23.881"/><use xlink:href="#11" y="26.052"/><use xlink:href="#12" y="30.394"/><use xlink:href="#13" y="32.565"/><use xlink:href="#14" y="34.736"/><use xlink:href="#15" y="36.907"/><use xlink:href="#16" y="39.078"/><use xlink:href="#17" y="41.249"/><use xlink:href="#18" y="43.42"/><use xlink:href="#19" y="47.762"/><use xlink:href="#20" y="49.933"/><use xlink:href="#1" y="52.104"/></svg><svg x="5180"><use xlink:href="#a"/><use xlink:href="#b" x="1.996" y="52.079"/><use xlink:href="#4"/><use xlink:href="#5" y="4.342"/><use xlink:href="#6" y="6.513"/><use xlink:href="#7" y="8.684"/><use xlink:href="#8" y="15.197"/><use xlink:href="#9" y="17.368"/><use xlink:href="#10" y="23.881"/><use xlink:href="#11" y="26.052"/><use xlink:href="#12" y="30.394"/><use xlink:href="#13" y="32.565"/><use xlink:href="#14" y="34.736"/><use xlink:href="#15" y="36.907"/><use xlink:href="#16" y="39.078"/><use xlink:href="#17" y="41.249"/><use xlink:href="#18" y="43.42"/><use xlink:href="#19" y="47.762"/><use xlink:href="#20" y="49.933"/><use xlink:href="#1" y="52.104"/></svg><svg x="5320"><use xlink:href="#a"/><use xlink:href="#b" x="-.004" y="54.25"/><use xlink:href="#4"/><use xlink:href="#5" y="4.342"/><use xlink:href="#6" y="6.513"/><use xlink:href="#7" y="8.684"/><use xlink:href="#8" y="15.197"/><use xlink:href="#9" y="17.368"/><use xlink:href="#10" y="23.881"/><use xlink:href="#11" y="26.052"/><use xlink:href="#12" y="30.394"/><use xlink:href="#13" y="32.565"/><use xlink:href="#14" y="34.736"/><use xlink:href="#15" y="36.907"/><use xlink:href="#16" y="39.078"/><use xlink:href="#17" y="41.249"/><use xlink:href="#18" y="43.42"/><use xlink:href="#19" y="47.762"/><use xlink:href="#20" y="49.933"/><use xlink:href="#1" y="52.104"/></svg></svg></g></g></svg></svg>