<svg xmlns="http://www.w3.org/2000/svg" width="461.79" height="89.64" viewBox="0 0 461.79 89.64">
  <path id="Path_28" data-name="Path 28" d="M7.11,0H30.06C42.12,0,54.18-4.32,54.18-18.18A15.156,15.156,0,0,0,40.41-33.57v-.18c6.57-1.98,11.07-6.75,11.07-13.95,0-11.61-9.9-16.02-19.53-16.02H7.11ZM18.45-54h9.36c8.55,0,12.33,2.7,12.33,8.19,0,4.77-3.78,8.01-11.34,8.01H18.45Zm0,25.92H29.34c9.18,0,13.5,2.34,13.5,9,0,8.37-8.1,9.36-13.95,9.36H18.45ZM100.44-43.2H89.64v23.58c0,5.76-2.79,10.98-9.9,10.98-7.56,0-7.92-7.92-7.92-12.69V-43.2H61.02v27.27c0,8.82,4.14,17.01,15.75,17.01,7.2,0,11.25-3.69,13.23-8.01h.18V0h10.26Zm12.69,9.18v19.8c0,10.17,2.7,15.3,14.13,15.3,2.52,0,6.3-.36,8.55-1.44V-9.45c-1.35.99-3.96,1.35-5.85,1.35-4.77,0-6.03-2.7-6.03-7.02v-18.9h11.88V-43.2H123.93V-55.71h-10.8V-43.2h-8.91v9.18ZM141.03,0h10.8V-68.04h-10.8Zm61.38-17.82v-2.97c0-15.03-8.19-23.49-20.25-23.49-13.05,0-23.49,9.09-23.49,22.68S169.11,1.08,182.16,1.08a22.5,22.5,0,0,0,18.27-8.64l-7.74-5.85c-2.7,3.33-6.21,5.85-11.61,5.85-6.03,0-10.89-3.87-11.61-10.26Zm-32.94-8.1c.81-6.21,4.77-10.26,11.16-10.26,6.75,0,10.89,3.96,10.98,10.26ZM209.07,0h10.8V-23.13c0-2.34,1.44-10.89,11.61-10.89a21.657,21.657,0,0,1,5.22.81V-43.65a13.927,13.927,0,0,0-3.87-.63,13.756,13.756,0,0,0-12.78,7.92h-.18V-43.2h-10.8Zm55.8,0H303.3V-10.26H276.21V-63.72H264.87Zm40.14-21.6c0,13.59,10.44,22.68,23.49,22.68s23.49-9.09,23.49-22.68S341.55-44.28,328.5-44.28,305.01-35.19,305.01-21.6Zm10.8,0c0-6.75,4.77-12.96,12.69-12.96s12.69,6.21,12.69,12.96S336.42-8.64,328.5-8.64,315.81-14.85,315.81-21.6Zm77.04-21.6v6.48h-.18c-3.15-5.22-8.82-7.56-14.85-7.56-13.32,0-21.33,9.9-21.33,22.68C356.49-9.36,365.04.54,378,.54c5.4,0,10.98-2.07,14.13-6.3h.18v3.15c0,8.55-3.24,14.49-13.68,14.49-6.03,0-10.53-2.25-14.85-6.21l-6.48,8.82c6.12,5.4,13.41,7.11,21.42,7.11,16.83,0,24.39-9.9,24.39-25.47V-43.2Zm-12.78,8.64c7.83,0,12.78,5.22,12.78,12.69,0,7.2-4.86,12.69-12.87,12.69a12.467,12.467,0,0,1-12.69-12.51C367.29-29.34,372.51-34.56,380.07-34.56ZM412.11,0h10.8V-43.2h-10.8Zm-1.53-57.87a6.653,6.653,0,0,0,6.84,6.48c3.96,0,7.02-2.79,7.02-6.48s-3.06-6.48-7.02-6.48A6.653,6.653,0,0,0,410.58-57.87ZM468.9-37.71a21.1,21.1,0,0,0-15.66-6.57c-13.05,0-23.49,9.09-23.49,22.68S440.19,1.08,453.24,1.08c3.78,0,11.16-1.62,15.57-6.03l-7.2-7.74a10.362,10.362,0,0,1-8.37,4.05c-7.92,0-12.69-6.21-12.69-12.96s4.77-12.96,12.69-12.96c2.88,0,5.67,1.71,8.19,4.32Z" transform="translate(-7.11 68.04)"/>
</svg>
